# xmcd
#
# Track frame offsets: 
#        150
#        22400
#        42001
#        57806
#        84218
#        100103
#        113855
#        127586
#        143735
#        161123
#        173090
#        196628
#        212732
#        226448
#        243737
#        256038
#        268292
#        286253
#        300452
#        312053
#
# Disc length: 4330 seconds
#
# Revision: 0
# Processed by: cddbd v1.5.2PL0 Copyright (c) Steve Scherf et al.
# Submitted via: ExactAudioCopy v1.1
#
DISCID=0910e814
DTITLE=Various Artist - Various - De Pré Historie - De Jaren '70 Vol. 2 - De 
DTITLE=Ultieme 10 CD Collectie - 1976
DYEAR=2019
DGENRE=Top 40
TTITLE0=Queen - Somebody To Love
TTITLE1=Elton John and Kiki Dee - Don't Go Breaking My Heart
TTITLE2=Abba - Mamma Mia
TTITLE3=John Miles - Music
TTITLE4=The Manhattans - Kiss And Say Goodbye
TTITLE5=Jesse Green - Nice And Slow
TTITLE6=Brotherhood Of Man - Save Your Kisses For Me
TTITLE7=John Denver - Calypso
TTITLE8=Nazareth - Love Hurts
TTITLE9=Teach - In - Upside Down
TTITLE10=Donna Summer - Could It Be Magic
TTITLE11=Jimmy James and The Vagabonds - Now Is The Time
TTITLE12=Sailor - Girls, Girls, Girls
TTITLE13=Anita Meyer - The Alternative Way
TTITLE14=Hank Mizell - Jungle Rock
TTITLE15=Louis Neefs - Sixteen Tons
TTITLE16=Jeane Manson - Avant De Nous Dire Adieu
TTITLE17=J. Vincent Edwards - Love Hit Me
TTITLE18=Robin Sarstedt - Let's Fall In Love
TTITLE19=Mike Oldfield - In Dulci Jubilo
EXTD=
EXTT0=
EXTT1=
EXTT2=
EXTT3=
EXTT4=
EXTT5=
EXTT6=
EXTT7=
EXTT8=
EXTT9=
EXTT10=
EXTT11=
EXTT12=
EXTT13=
EXTT14=
EXTT15=
EXTT16=
EXTT17=
EXTT18=
EXTT19=
PLAYORDER=
